# xmcd CD database file
#
# Track frame offsets:
#	150
#	18593
#	53868
#	71884
#	96324
#	124290
#	187700
#	211265
#	232831
#	251868
#	262167
#	270223
#	289853
#	307163
#
# Disc length: 4737 seconds
#
# Revision: 0
# Processed by: cddbd v1.5.2PL0 Copyright (c) Steve Scherf et al.
# Submitted via: CDex 2.12
#
DISCID=d3127f0e
DTITLE=Musica Jazz (Magazine) - Duke Ellington - Night Creature
DYEAR=2018
DGENRE=Jazz
TTITLE0=Night Creature - I. Blind bug
TTITLE1=Night Creature - II. Stalking monster
TTITLE2=Night Creature - III. Dazzling creature
TTITLE3=Non-violent integration
TTITLE4=La Scala, She too pretty to be blue
TTITLE5=Harlem
TTITLE6=New York City Blues
TTITLE7=Blue belles of Harlem
TTITLE8=The clothed woman
TTITLE9=Melancholia
TTITLE10=Janet
TTITLE11=Reflections in D
TTITLE12=There was nobody looking
TTITLE13=New world A-comin'
EXTD=YEAR: 2018
EXTT0=
EXTT1=
EXTT2=
EXTT3=
EXTT4=
EXTT5=
EXTT6=
EXTT7=
EXTT8=
EXTT9=
EXTT10=
EXTT11=
EXTT12=
EXTT13=
PLAYORDER=
